<?xml version="1.0" standalone="no"?>
<!-- Generator: Adobe Fireworks 10, Export SVG Extension by Aaron Beall (http://fireworks.abeall.com) . Version: 0.6.1  -->
<!DOCTYPE svg PUBLIC "-//W3C//DTD SVG 1.1//EN" "http://www.w3.org/Graphics/SVG/1.1/DTD/svg11.dtd">
<svg id="logo-no-umbrella-Page%201" viewBox="0 0 282 83" style="background-color:#ffffff00" version="1.1"
	xmlns="http://www.w3.org/2000/svg" xmlns:xlink="http://www.w3.org/1999/xlink" xml:space="preserve"
	x="0px" y="0px" width="282px" height="83px"
>
	<g id="Layer%201">
		<path d="M 25.6844 67 L 34.6375 67 L 34.6375 25 L 25.1375 25 L 25.1375 55.0781 C 23.5125 58.3594 20.4031 60 15.8094 60 C 11.3406 60 9.1219 57.3438 9.1219 52.0313 L 9.1219 25 L -0.3625 25 L -0.3625 52.3594 C -0.3625 57.4375 0.8094 61.3125 3.1687 63.9844 C 5.5125 66.6719 8.9812 68 13.575 68 C 18.7 68 22.6687 66.3594 25.45 63.0781 L 25.6844 67 L 25.6844 67 Z" fill="#2c2c2c"/>
		<path d="M 41.0313 25 L 41.0313 67 L 50.5313 67 L 50.5313 36.6094 C 52.1094 33.5469 54.7969 32 58.6094 32 C 63.5469 32 66.0938 34.4688 66.2344 39.4063 L 66.2344 67 L 75.7188 67 L 75.6875 38.2344 C 76.2188 36.3906 77.1719 34.8906 78.5469 33.7344 C 79.9219 32.5781 81.6875 32 83.8438 32 C 86.5469 32 88.4844 32.625 89.6563 33.8594 C 90.8281 35.1094 91.4219 37.0625 91.4219 39.7188 L 91.4219 67 L 100.9219 67 L 100.9219 39.25 C 100.8594 34.2344 99.7031 30.4375 97.4219 27.8594 C 95.1406 25.2969 91.6719 24 87.0156 24 C 81.4375 24 77.1094 26.1719 74.0469 30.4844 C 71.9531 26.1719 68.0938 24 62.4375 24 C 57.2813 24 53.2188 25.7344 50.25 29.1875 L 49.9844 25 L 41.0313 25 L 41.0313 25 Z" fill="#2c2c2c"/>
		<path d="M 144.7375 45.875 C 144.7375 38.9844 143.2531 33.6094 140.3156 29.7656 C 137.3781 25.9219 133.3313 24 128.175 24 C 123.5344 24 119.8469 25.625 117.1281 28.8594 L 117.1281 7 L 107.6281 7 L 107.6281 67 L 116.2219 67 L 116.6906 62.625 C 119.4406 66.2188 123.3 68 128.2531 68 C 133.3781 68 137.4094 66.0625 140.3469 62.1563 C 143.2688 58.2656 144.7375 53.0313 144.7375 46.4375 L 144.7375 45.875 L 144.7375 45.875 ZM 135.2375 46.7969 C 135.175 51.2344 134.3469 54.5313 132.7375 56.7188 C 131.1125 58.9063 128.8313 60 125.8625 60 C 121.7063 60 118.8 58.1875 117.1125 54.5469 L 117.1125 37.3281 C 118.7688 33.7813 121.6594 32 125.7844 32 C 128.8469 32 131.1906 33.1406 132.8156 35.4063 C 134.425 37.6719 135.2375 41.0625 135.2375 45.5938 L 135.2375 46.7969 L 135.2375 46.7969 Z" fill="#2c2c2c"/>
		<path d="M 171.5687 24.4844 C 170.6781 24.1719 169.5531 24 168.2094 24 C 164.1469 24 160.9594 25.8438 158.6781 29.5 L 158.4437 25 L 149.3812 25 L 149.3812 67 L 158.8812 67 L 158.8812 37.1563 C 160.3812 33.7188 163.3187 32 167.6625 32 C 168.9906 32 170.2875 32.1094 171.5375 32.3125 L 171.5687 24.4844 L 171.5687 24.4844 Z" fill="#2c2c2c"/>
		<path d="M 201.4156 65.9063 C 204.2437 64.5 206.5094 62.5313 208.1969 60 L 203.0875 55.0938 C 200.3375 58.375 196.8062 60 192.4625 60 C 189.3531 60 186.775 59.0156 184.7437 57.0469 C 182.6969 55.0781 181.525 52.3906 181.2437 49 L 208.8687 49 L 208.8687 45.1563 C 208.8687 38.4219 207.2906 33.2188 204.15 29.5313 C 201.0094 25.8438 196.5719 24 190.8219 24 C 187.1969 24 183.9 24.9375 180.9625 26.7813 C 178.025 28.6406 175.7437 31.2344 174.1187 34.5625 C 172.4937 37.9063 171.6812 41.6875 171.6812 45.9219 L 171.6812 47.0938 C 171.6812 53.4375 173.5406 58.5 177.275 62.2969 C 181.0094 66.1094 185.8844 68 191.9156 68 C 195.4156 68 198.5875 67.2969 201.4156 65.9063 L 201.4156 65.9063 ZM 196.9469 34.3594 C 198.4312 35.9375 199.275 38.2656 199.4937 41.3281 L 199.4937 42 L 181.4 42 C 181.8375 38.8594 182.8687 36.4063 184.4625 34.6406 C 186.0562 32.8906 188.1656 32 190.775 32 C 193.4 32 195.4625 32.7969 196.9469 34.3594 L 196.9469 34.3594 Z" fill="#2c2c2c"/>
		<path d="M 239.9688 7 L 230.4688 7 L 230.4688 67 L 239.9688 67 L 239.9688 7 L 239.9688 7 Z" fill="#2c2c2c"/>
		<path d="M 281.4562 67 L 281.4562 66.3438 C 280.3781 64.0781 279.8469 61.0469 279.8469 57.25 L 279.8469 38.2031 C 279.7687 33.7031 278.2531 30.2188 275.3156 27.7344 C 272.3781 25.25 268.425 24 263.4875 24 C 260.2219 24 257.2687 24.5938 254.6281 25.75 C 251.9875 26.9063 249.8938 28.5156 248.3625 30.5625 C 246.8313 32.625 246.0656 34.8281 246.0656 37.1719 L 255.55 37.1719 C 255.55 35.6719 256.2375 34.4375 257.6125 33.4688 C 258.9875 32.5 260.7687 32 262.9406 32 C 265.4406 32 267.3 32.5938 268.5187 33.7813 C 269.7375 34.9688 270.3625 36.5313 270.3625 38.5 L 270.3625 41 L 264.5344 41 C 258.3156 41 253.5188 42.2344 250.175 44.6719 C 246.8313 47.1094 245.1594 50.625 245.1594 55.1875 C 245.1594 58.8125 246.4875 61.8594 249.175 64.3125 C 251.8625 66.7813 255.3313 68 259.5812 68 C 263.9562 68 267.6437 66.4219 270.675 63.25 C 270.9875 64.9844 271.3469 66.2344 271.7687 67 L 281.4562 67 L 281.4562 67 ZM 256.4875 58.5156 C 255.2688 57.5156 254.675 56.1719 254.675 54.4844 C 254.675 52.4219 255.55 50.8281 257.3312 49.7031 C 259.0969 48.5781 261.7375 48 265.2531 48 L 270.3781 48 L 270.3781 55.3438 C 269.5344 56.7813 268.3 57.9063 266.6437 58.75 C 264.9875 59.5938 263.2219 60 261.3469 60 C 259.3156 60 257.6906 59.5156 256.4875 58.5156 L 256.4875 58.5156 Z" fill="#2c2c2c"/>
		<text visibility="hidden" x="-3" y="88" width="144" fill="#5b5b5b" style="font-size: 12px; font-family: Roboto; color: #5b5b5b; text-align: center; "><tspan><![CDATA[GAMING INTERNATIONAL]]></tspan></text>
		<path d="M 221.0443 2.2744 C 221.0443 2.2744 214.7482 7.1073 215.4576 16.3705 C 216.167 25.6337 216.7878 38.5216 216.7878 40.938 C 216.7878 43.3545 216.5219 43.3545 216.5219 43.3545 C 216.5219 43.3545 216.167 32.3461 214.6595 25.2309 C 213.152 18.1157 210.5804 2.8114 221.0443 2.2744 ZM 222.9066 64.2974 C 222.9066 64.2974 225.3009 50.604 225.5669 42.9518 C 225.833 35.2996 225.3009 32.8831 225.0348 31.6749 C 224.7688 30.4666 225.3009 28.0501 225.833 27.2447 C 226.3649 26.4392 226.5645 25.2309 226.0989 23.6199 C 225.6333 22.0089 225.3009 20.4986 226.0989 18.787 C 226.897 17.0753 226.3649 15.0616 225.833 13.954 C 225.3009 12.8465 225.5669 10.6314 226.3649 9.5238 C 227.1631 8.4163 228.2937 1.7709 222.1084 0.2606 C 215.9232 -1.2497 209.8043 3.8853 211.201 13.5513 C 212.5978 23.2172 214.4821 35.7023 214.9255 44.16 C 215.369 52.6177 213.8615 62.1494 213.5953 63.0891 C 213.3293 64.0288 211.1124 64.0288 211.7332 65.9083 C 212.3539 67.7878 214.3936 67.9221 214.3936 67.9221 C 214.3936 67.9221 223.0245 69.0786 224 67.3333 C 224.9756 65.5881 223.9706 64.2974 222.9066 64.2974 Z" fill="#2d2d2d"/>
		<rect x="215" y="65" width="6" height="7" fill="#2d2d2d"/>
		<path d="M 227 73.0938 C 227 72.5242 227.4478 72.0625 228 72.0625 L 237 72.0625 C 237.5522 72.0625 238 72.5242 238 73.0938 C 238 73.6633 237.5522 74.125 237 74.125 L 228 74.125 C 227.4478 74.125 227 73.6633 227 73.0938 ZM 188 72.75 L 188 78.25 C 188 79.7688 189.1938 81 190.6666 81 L 244.3334 81 C 245.8062 81 247 79.7688 247 78.25 L 247 72.75 C 247 71.2312 245.8062 70 244.3334 70 L 190.6666 70 C 189.1938 70 188 71.2312 188 72.75 Z" fill="#2d2d2d"/>
		<g>
			<path d="M 194 80.5 C 194 79.6716 194.6633 79 195.4815 79 L 202.5185 79 C 203.3367 79 204 79.6716 204 80.5 L 204 80.5 C 204 81.3284 203.3367 82 202.5185 82 L 195.4815 82 C 194.6633 82 194 81.3284 194 80.5 L 194 80.5 Z" fill="#2d2d2d"/>
		</g>
		<path d="M 231 80.5 C 231 79.6716 231.6633 79 232.4815 79 L 239.5185 79 C 240.3367 79 241 79.6716 241 80.5 L 241 80.5 C 241 81.3284 240.3367 82 239.5185 82 L 232.4815 82 C 231.6633 82 231 81.3284 231 80.5 L 231 80.5 Z" fill="#2d2d2d"/>
	</g>
</svg>